<?xml version="1.0" encoding="utf-8"?>
<!-- Generator: Adobe Illustrator 19.0.0, SVG Export Plug-In . SVG Version: 6.00 Build 0)  -->
<svg version="1.1" id="Camada_1" xmlns="http://www.w3.org/2000/svg" xmlns:xlink="http://www.w3.org/1999/xlink" x="0px" y="0px"
	 viewBox="181 -38.2 874 589.2" style="enable-background:new 181 -38.2 874 589.2;" xml:space="preserve">
<style type="text/css">
	.st0{fill:#0B2A4C;}
	.st1{fill:#0E77FF;}
	.st2{fill:#094D63;}
	.st3{fill:none;}
	.st4{fill:#F9FBFF;}
	.st5{fill:#E8A17E;}
	.st6{fill:#D88D6C;}
	.st7{fill:#FFFFFF;}
	.st8{fill:#161119;}
	.st9{fill:#3E3244;}
	.st10{fill:none;stroke:#3E3244;stroke-width:5;stroke-miterlimit:10;}
	.st11{opacity:0.45;fill:#F27B53;enable-background:new    ;}
	.st12{fill:#F9FBFF;stroke:#0B2A4C;}
	.st13{fill:#0B2A4C;stroke:#0B2A4C;}
	.st14{fill:#FFFFFF;stroke:#0B2A4C;}
	.st15{fill:#085958;}
	.st16{opacity:0.27;fill:#26476D;enable-background:new    ;}
	.st17{opacity:7.000000e-002;fill:#26476D;enable-background:new    ;}
</style>
<rect id="Retângulo_1320" x="181" y="527" class="st0" width="874" height="23.8"/>
<g id="Grupo_35686" transform="translate(-537 -8856.501)">
	<g id="Grupo_35685" transform="translate(537 8857.001)">
		<g id="Grupo_35651" transform="translate(0 251.401)">
			<path id="Caminho_37661" class="st1" d="M324.4,259c-3.8-5.5-15.1-19.1-12.4-25.2c5.9-13.2,52.8-22.7,96.2,28.3"/>
			<path id="Caminho_37662" class="st0" d="M425.7,281.1c-46.9,6-102.3,10.8-146.7-14.6c-29.4-16.8-5.3-40.5,21-39.4
				c-33.2-4-75.3-30-84.6-64.2c-2-7.8,2.7-15.7,10.5-17.8c3.2-0.9,17.6,1.6,20.7,1.3c-28.4-9.6-83.3-71.3-59.9-101.6
				c21.4-27.7,59.7,15.2,76.8,25.5c-9.7-15.4-13.1-41.8,9.1-42.9c31.9-1.6,62.2,68.8,75.9,90.5c0.6-9-0.1-33,7.9-37.2
				c17.3-9.1,75.2,19.9,78.9,110.5C435.9,207,440.8,256.6,425.7,281.1z"/>
			<path id="Caminho_37663" class="st2" d="M402.3,227.9c-33-18.5-70.9-41.7-87.3-79.2c-10.9-24.8,15.9-28.5,32.3-15.3
				c-19.4-18.4-34.1-55.1-23.8-81.5c2.4-5.9,9.2-8.8,15.2-6.4c2.5,1,10.5,9.4,12.7,10.7c-13.7-19.7-19.6-85.5,9.9-93.8
				c26.9-7.7,31.1,38.2,37.2,52.9c1.1-14.5,11.5-33.1,26.3-23.2C446,6.3,432,66,430.5,86.3c4.7-5.5,15.6-21.3,22.8-20.2
				c15.4,2.4,38.8,48.6-1.9,108.5C444.1,185.2,423.7,219.4,402.3,227.9z"/>
			<path id="Caminho_37664" class="st2" d="M685.7,172.1c-8.1-36.9-16-80.7,1.1-117.9c11.3-24.6,31.9-7.1,32.9,13.9
				c0.8-26.7,18.5-62.2,45.1-72c6.1-2.1,12.7,1,14.9,7.1c0.9,2.5-0.1,14.1,0.4,16.6c5.6-23.3,50.8-71.5,76.6-55
				c23.6,15-7.8,48.7-14.8,63c11.5-8.8,32.4-13.4,34.9,4.2c3.6,25.3-50.3,54.4-66.6,66.9c7.2-0.2,26.3-2.5,30.2,3.6
				c8.5,13.1-10.5,61.3-82.3,70.8C745.4,175,706.3,182.4,685.7,172.1z"/>
		</g>
		<path id="Caminho_37665" class="st3" d="M936.5,509.5l1.3,10.1c-3.9-0.2-6.8-1.6-8.1-3.2c-0.8-0.9-1-2.1-0.6-3.2
			C929.9,511,933.2,510,936.5,509.5z"/>
		<g id="Grupo_35653" transform="translate(700.325 363.019)">
			<g id="Grupo_35652" transform="translate(0 133.203)">
				<path id="Caminho_37666" class="st0" d="M184.7,11.4c4.8,6,13.9,9.4,24,9.6l2.1,16.7H251l3.5-20.9c-12.2-0.7-34.5-6.3-52.3-34.2
					c-8.2,1.2-17.3,4.6-20.4,13.4C180,1.3,181.1,7.2,184.7,11.4z M191.3-0.7C192.8-5,199-7,205-7.7l2.4,18.8c-7.3-0.4-12.6-3-15-5.9
					C191,3.6,190.6,1.3,191.3-0.7L191.3-0.7z"/>
				<path id="Caminho_37667" class="st2" d="M202.3-17.4c0.5-0.1,1-0.2,1.5-0.2l-2.4-18.9c-0.1-1,0.6-2,1.6-2.1c0.1,0,0.2,0,0.2,0
					h58.4c1.1,0,2.1,0.9,2.1,2.1c0,0.1,0,0.2,0,0.3l-9,53C242.4,16.1,220.1,10.5,202.3-17.4z"/>
			</g>
			<path id="Caminho_37668" class="st4" d="M229.1,86.8c5.8-3.1,11.3-14.2,13.6-19.4s3-11.3,0.4-16.3c-2.1-4.3-6.2-7.2-8.8-11.2
				c-2.6-4.2-3.5-9.3-2.2-14.1c1.7-6.7,7.2-12,8.5-18.8c1.5-8-3.2-15.6-5.2-23.5c-1.9-7.3-1.5-15,1-22c-5.7,3.4-9.1,9.4-12.2,15.2
				c-2.9,5.3-5.8,11-5.4,17c0.3,3.8,1.8,7.3,3.2,10.9c2.4,6.4,4,13.5,2.3,20.1c-2.6,10-12.5,17.9-12.1,28.2c0.2,6.1,4.2,11.6,9,15.4
				c3.1,2.5,6.7,4.6,8.9,7.9S232.5,84.7,229.1,86.8"/>
		</g>
		<g id="Grupo_35665" transform="translate(262.629 144.482)">
			<path id="Caminho_37669" class="st0" d="M334.7,2.1c4.6,10.8,8.2,21.2,9.9,31.9c1.7,10.7,2.3,21.6,5,32.2
				c2.4,9.3,6.3,18.1,10.5,26.7c0.4,0.8,0.7,1.6,0.8,2.5c0,1.7-1.5,3-2.9,4c-20.9,15.3-50,18.8-74,8.8"/>
			<ellipse id="Elipse_217" class="st2" cx="335.1" cy="49.4" rx="20.6" ry="25.7"/>
			<path id="Caminho_37670" class="st5" d="M293.2,105.2c-2,11-3.6,23.4,3.3,32.2c1.5,1.9,3.4,3.8,3.5,6.3c0.1,3.2-2.9,5.5-5.8,7
				c-11.3,5.6-24.3,6.2-36.1,1.9c-1-0.3-1.9-0.8-2.6-1.6c-1.5-1.8-0.5-4.5,0.4-6.6c8.2-19.9,8-42.3-0.6-62.1"/>
			<path id="Caminho_37671" class="st6" d="M294.2,102c-1.9,7.7-3.2,15.1-2.3,23c0.1,0.3,0,0.5-0.1,0.8c-0.3,0.3-0.7,0.2-1,0
				c-2.6-0.8-5-1.9-7.3-3.4c-3.7-2.5-8.2-7.2-10.1-11.3c-2.7-5.4-3.9-11.4-3.5-17.5"/>
			<path id="Caminho_37672" class="st5" d="M319.5,3.6c7.8,8.7,9.6,21.2,10.7,32.8c0.9,10.3,1.5,20.7,0,30.9s-5.1,20.3-11.7,28.3
				c-2.8,3.3-6.1,6.3-9.7,8.6c-2.5,1.7-5.3,2.9-8.2,3.6c-5.6,1.2-11.3-0.4-16.8-2.2c-12.4-4-25.1-9.4-32.7-19.9
				C241.2,72.1,234.6,36,232,19.3"/>
			<path id="Caminho_37673" class="st6" d="M335.1,14.3c-11.6,10-25.8,16.7-41,19.2c-8.7,1.4-17.6,1.5-26.5,1.3
				c-3.3,0-6.6-0.3-9.9-1c-4.5-1-8.5-3.7-11.2-7.5c-2.4-3.9-2.8-9.2-0.2-13"/>
			<path id="Caminho_37674" class="st0" d="M235.4-31.4c22-10.7,53.9-8.4,70,0.7s22.7,17.4,31,36.5c0.5,1.1,3.4,8.2,3,9.3
				c-0.3,1.1-1.1,1.9-2.1,2.2c-19.8,7.6-37.2,8.9-58.4,10c-7.1,0.3-14.2,0.4-21.1-1.3c-9.7,32.5-4.6,55.8,11.5,85.7
				c-10.5,4.4-51.5,7-70.9-8.1c-5-3.9-9.6-8.5-12.7-14.1c-7.7-14.1-4.4-31.6-0.2-47.1c3.1-11.6,6.7-23.1,12.4-33.7
				C206.6-7.5,218.4-24.1,235.4-31.4"/>
			<path id="Caminho_37675" class="st7" d="M312.5,75.3c-1.6,5-3.5,9.5-7.9,12.4c-4.4,2.8-10.2,2.5-14.9,0.3
				c-4.7-2.2-9.1-7.7-12.4-11.7C288.8,77.3,301.3,77.3,312.5,75.3"/>
			<g id="Grupo_35654" transform="translate(111.081 81.286)">
				<path id="Caminho_37676" class="st8" d="M181.9-35.3c3-1.8,6.7-1.8,9.8-0.1l1.1-1.6c-3.6-2.1-8.1-2.1-11.7,0L181.9-35.3z"/>
			</g>
			<g id="Grupo_35655" transform="translate(72.55 82.011)">
				<path id="Caminho_37677" class="st8" d="M181-36.6l4.9-0.1v-1.9h-4.7L181-36.6z"/>
			</g>
			<path id="Caminho_37678" class="st6" d="M299.3,49.4l6,18.3l-9.4,0.8"/>
			<g id="Grupo_35656" transform="translate(74.935 68.543)">
				<path id="Caminho_37679" class="st9" d="M205.8-33.7c-0.4-0.2-0.8-0.4-1.2-0.6c-0.2-0.1-0.5-0.2-0.7-0.3l0.3,0.1
					c-0.6-0.3-1.2-0.5-1.9-0.7c-0.8-0.3-1.6-0.5-2.4-0.6c-0.5-0.1-1-0.2-1.6-0.3h0.3c-1.5-0.2-3-0.3-4.5-0.2c-0.5,0-0.9,0.1-1.4,0.1
					h0.3c-1.5,0.2-3,0.6-4.5,1.1c-0.5,0.2-0.9,0.3-1.3,0.5l0.3-0.1c-1.6,0.7-3.2,1.6-4.7,2.6c-0.3,0.2-0.6,0.2-0.9,0.1
					c-0.3-0.1-0.5-0.3-0.7-0.5c-0.2-0.3-0.2-0.6-0.1-0.9c0.1-0.3,0.3-0.5,0.5-0.7c2.3-1.6,4.8-2.8,7.5-3.6c2.2-0.6,4.5-0.9,6.8-0.9
					c1.9,0,3.8,0.3,5.6,0.7c1.3,0.3,2.6,0.8,3.9,1.4c0.5,0.2,1,0.5,1.5,0.8l0,0c0.2,0.2,0.4,0.4,0.5,0.7c0.1,0.3,0,0.6-0.1,0.9
					s-0.4,0.4-0.7,0.5C206.3-33.5,206-33.6,205.8-33.7L205.8-33.7z"/>
			</g>
			<g id="Grupo_35657" transform="translate(128.203 66.518)">
				<path id="Caminho_37680" class="st9" d="M182.9-31.6c0.3-0.3,0.7-0.6,1-0.8c0.2-0.2,0.4-0.3,0.7-0.5l-0.2,0.2
					c0.6-0.4,1.1-0.7,1.7-1c0.7-0.4,1.5-0.7,2.2-1.1c0.5-0.2,1-0.4,1.5-0.5l-0.3,0.1c1.4-0.5,2.9-0.8,4.4-1c0.5,0,0.9-0.1,1.4-0.1
					H195c1.5-0.1,3.1,0,4.6,0.3c0.5,0.1,0.9,0.2,1.4,0.3l-0.3-0.1c1.7,0.4-0.6,1.6,2.6,0.7c0.3-0.1-2.1-3.1-4.9-3.3
					c-2.3-0.2-4.6-0.1-6.8,0.3c-1.8,0.4-3.6,0.9-5.4,1.7c-1.3,0.6-2.5,1.3-3.6,2.1c-0.5,0.3-0.9,0.7-1.4,1l0,0
					c-0.2,0.2-0.4,0.5-0.4,0.8s0.1,0.6,0.3,0.8c0.2,0.2,0.5,0.4,0.8,0.4C182.3-31.3,182.6-31.4,182.9-31.6L182.9-31.6z"/>
			</g>
			<path id="Caminho_37681" class="st10" d="M280.5,47.1c0,0-5.5-7.8-13.4-1.1"/>
			<path id="Caminho_37682" class="st10" d="M327.3,45.4c0,0-5.5-7.8-13.4-1.1"/>
			<circle id="Elipse_218" class="st11" cx="265.8" cy="64.1" r="8.1"/>
			<circle id="Elipse_219" class="st11" cx="323.8" cy="60.9" r="6.8"/>
			<g id="Grupo_35658" transform="translate(121.581 66.52)">
				<path id="Caminho_37683" class="st8" d="M181-20.7c0-9.8,8-17.8,17.8-17.8s17.8,8,17.8,17.8s-8,17.8-17.8,17.8
					C189-2.9,181-10.9,181-20.7z M183.1-20.7c0,8.7,7.1,15.8,15.8,15.8s15.8-7.1,15.8-15.8s-7.1-15.8-15.8-15.8
					C190.1-36.5,183.1-29.4,183.1-20.7z"/>
			</g>
			<g id="Grupo_35659" transform="translate(76.735 66.52)">
				<path id="Caminho_37684" class="st8" d="M181-20.7c0-9.8,8-17.8,17.8-17.8s17.8,8,17.8,17.8s-8,17.8-17.8,17.8
					C189-2.9,181-10.9,181-20.7z M183.1-20.7c0,8.7,7.1,15.8,15.8,15.8s15.8-7.1,15.8-15.8s-7.1-15.8-15.8-15.8
					C190.1-36.5,183.1-29.4,183.1-20.7L183.1-20.7z"/>
			</g>
			<g id="Grupo_35662" transform="translate(50.639 109.804)">
				<g id="Grupo_35660" transform="translate(55.678 21.13)">
					
						<ellipse id="Elipse_220" transform="matrix(-9.606916e-002 0.9954 -0.9954 -9.606916e-002 172.7773 -223.0833)" class="st8" cx="187.7" cy="-33.1" rx="4.9" ry="6.2"/>
				</g>
				<g id="Grupo_35661">
					<path id="Caminho_37685" class="st8" d="M232.1-11c2.8,0.3,5.6,0.4,8.4,0.2l-0.1-2.7c-32.3,1.3-57.2-24.8-57.4-25.1l-2,1.8
						C181.2-36.5,202.7-13.9,232.1-11z"/>
				</g>
			</g>
			<g id="Grupo_35664" transform="translate(30.421 1.316)">
				<g id="Grupo_35663" transform="translate(14.359)">
					<path id="Caminho_37686" class="st2" d="M286,23.5c-2.4-18.1-11.2-38.1-25.7-48.3c-13-9.2-30.3-9.8-44.5-3.9
						c-12.3,5.1-20.4,16.4-24.5,29.6c-3.4,11.2-3.9,22.8-4.7,34.4c-0.3,3.8-5.9,3.9-5.6,0c0.8-11.1,1.2-22.2,4-32.9
						c3.7-14,11.2-26.9,23.4-34c14.5-8.4,33.8-9.3,48.8-1.9c12.2,6,21.1,17.8,26.8,30.6c3.6,7.9,6.1,16.3,7.4,24.9
						C291.9,25.7,286.5,27.3,286,23.5L286,23.5z"/>
				</g>
				<ellipse id="Elipse_221" class="st2" cx="201.6" cy="54.7" rx="20.6" ry="25.7"/>
			</g>
		</g>
		<g id="Grupo_35669" transform="translate(87.989 68.88)">
			<g id="Grupo_35668" transform="translate(4.265)">
				<path id="Retângulo_1319" class="st12" d="M359.7,83.1H183.8c-1.6,0-2.8-1.3-2.8-2.8v-116c0-1.6,1.3-2.8,2.8-2.8h175.9
					c1.6,0,2.8,1.3,2.8,2.8v116C362.6,81.8,361.3,83.1,359.7,83.1z"/>
				<g id="Grupo_35667" transform="translate(66.546 19.626)">
					<g id="Grupo_35666">
						<path id="Caminho_37687" class="st13" d="M218.5-35.6c3.5,1.6,6.5,4.1,8.7,7.3c2.1,3,3.2,6.7,3.2,10.4c0,2.6-0.5,5.2-1.5,7.6
							c-0.9,2-2.1,3.9-3.6,5.6c-1.8,1.8-3.6,3.6-5.6,5.2c-2.6,2.1-4.9,4.5-6.9,7.1c-1.6,2.3-2.4,5-2.3,7.8V17c0,0.8-0.3,1.6-0.9,2.1
							c-0.5,0.6-1.2,0.9-2,0.9h-4c-0.7,0-1.5-0.3-2-0.9c-0.6-0.6-0.9-1.3-0.9-2.1v-2.3c-0.1-2.6,0.4-5.2,1.5-7.6
							c0.9-2.1,2.1-3.9,3.6-5.6c1.4-1.5,3.3-3.3,5.7-5.5c2.4-2.1,4.7-4.4,6.7-6.9c1.5-2.1,2.3-4.6,2.2-7.1c0.1-3.3-1.5-6.4-4.3-8.2
							c-3.1-2-6.7-3.1-10.4-3c-3.5-0.1-6.9,0.9-9.7,2.9c-2.6,2-4.4,5-5.4,9c-0.1,0.6-0.5,1.3-1,1.7c-0.5,0.4-1.1,0.6-1.8,0.6h-4.6
							c-0.6,0-1.2-0.2-1.7-0.7c-0.4-0.4-0.7-1.1-0.6-1.7c0.3-3.5,1.4-6.9,3.2-9.9c2-3.4,4.9-6.1,8.4-8c4.1-2.2,8.7-3.2,13.3-3.1
							C210.1-38.6,214.4-37.7,218.5-35.6z M211.6,35.2c0,0.8-0.3,1.5-0.9,2.1c-0.5,0.6-1.2,0.9-2,0.9h-6.2c-0.7,0-1.5-0.3-2-0.9
							c-0.6-0.6-0.9-1.3-0.9-2.1v-6.1c0-0.8,0.3-1.6,0.9-2.1c0.5-0.6,1.2-0.9,2-0.9h6.2c0.7,0,1.5,0.3,2,0.9
							c0.6,0.6,0.9,1.3,0.9,2.1V35.2L211.6,35.2z"/>
					</g>
				</g>
			</g>
		</g>
		<g id="Grupo_35675" transform="translate(417.787 0)">
			<path id="Caminho_37688" class="st14" d="M199.1-38.5H341c10,0,18.1,8.1,18.1,18.1v83.1c0,10-8.1,18.1-18.1,18.1H240.3L202.2,108
				V80.7h-3.1c-10,0-18.1-8.1-18.1-18.1v-83.1C181-30.5,189.1-38.5,199.1-38.5z"/>
			<g id="Grupo_35674" transform="translate(17.28 13.676)">
				<path id="Caminho_37689" class="st0" d="M323-38.5"/>
				<g id="Grupo_35670" transform="translate(0 17.114)">
					<path id="Caminho_37690" class="st0" d="M182.4-38.5H323c0.8,0,1.4,0.7,1.4,1.5c0,0.7-0.6,1.3-1.4,1.4H182.4
						c-0.8,0-1.4-0.7-1.4-1.5S181.6-38.5,182.4-38.5z"/>
				</g>
				<g id="Grupo_35671" transform="translate(0 35.659)">
					<path id="Caminho_37691" class="st0" d="M182.4-38.5H323c0.8,0,1.4,0.7,1.4,1.5c0,0.7-0.6,1.3-1.4,1.4H182.4
						c-0.8,0-1.4-0.7-1.4-1.5S181.6-38.5,182.4-38.5z"/>
				</g>
				<g id="Grupo_35672" transform="translate(42.023 54.197)">
					<path id="Caminho_37692" class="st0" d="M182.4-38.5H281c0.8,0,1.4,0.7,1.4,1.5c0,0.7-0.6,1.3-1.4,1.4h-98.7
						c-0.8,0-1.4-0.7-1.4-1.5C181-37.9,181.6-38.5,182.4-38.5z"/>
				</g>
				<g id="Grupo_35673" transform="translate(42.023 72.736)">
					<path id="Caminho_37693" class="st0" d="M182.4-38.5H281c0.8,0,1.4,0.7,1.4,1.5c0,0.7-0.6,1.3-1.4,1.4h-98.7
						c-0.8,0-1.4-0.7-1.4-1.5C181-37.9,181.6-38.5,182.4-38.5z"/>
				</g>
			</g>
		</g>
		<g id="Grupo_35681" transform="translate(498.599 149.523)">
			<path id="Caminho_37694" class="st14" d="M192.7-38.5h92.2c6.5,0,11.7,5.3,11.7,11.7v54c0,6.5-5.3,11.7-11.7,11.7h-65.4
				l-24.8,17.6V38.9h-2c-6.5,0-11.7-5.3-11.7-11.7v-54C181-33.3,186.3-38.5,192.7-38.5z"/>
			<g id="Grupo_35680" transform="translate(11.226 8.882)">
				<path id="Caminho_37695" class="st0" d="M273.3-38.5"/>
				<g id="Grupo_35676" transform="translate(0 11.126)">
					<path id="Caminho_37696" class="st0" d="M181.9-38.5h91.4c0.5,0,0.9,0.4,0.9,0.9s-0.4,0.9-0.9,0.9h-91.4
						c-0.5,0-0.9-0.4-0.9-0.9C181-38.1,181.4-38.5,181.9-38.5L181.9-38.5z"/>
				</g>
				<g id="Grupo_35677" transform="translate(0 23.164)">
					<path id="Caminho_37697" class="st0" d="M181.9-38.5h91.4c0.5,0,0.9,0.5,0.9,1s-0.4,0.9-0.9,0.9h-91.4c-0.5,0-0.9-0.5-0.9-1
						C181-38.1,181.4-38.5,181.9-38.5L181.9-38.5z"/>
				</g>
				<g id="Grupo_35678" transform="translate(27.3 35.209)">
					<path id="Caminho_37698" class="st0" d="M181.9-38.5H246c0.5,0,0.9,0.5,0.9,1s-0.4,0.9-0.9,0.9h-64.1c-0.5,0-0.9-0.5-0.9-1
						C181-38.1,181.4-38.5,181.9-38.5z"/>
				</g>
				<g id="Grupo_35679" transform="translate(27.3 47.253)">
					<path id="Caminho_37699" class="st0" d="M181.9-38.5H246c0.5,0,0.9,0.5,0.9,1s-0.4,0.9-0.9,0.9h-64.1c-0.5,0-0.9-0.5-0.9-1
						C181-38.1,181.4-38.5,181.9-38.5z"/>
				</g>
			</g>
		</g>
		<g id="Grupo_35682" transform="translate(188.638 320.516)">
			<path id="Caminho_37700" class="st2" d="M332.1-37.3c-27,1.1-56.3,9.3-76.1,27.8c-1.8,1.5-3.2,3.3-4,5.4c-1.1,3.2,0,6.6,1,9.8
				c11.7,37.1,12.3,76.8,1.8,114.3c-2.8,9.7-6.3,19.4-7.2,29.4s1,21,8,28.3c3.1,3.1,6.7,5.6,10.6,7.5c21.6,10.9,47.1,10.5,71.3,9.5
				c14.9-0.6,30-1.4,44.4-5.5s28.2-11.8,36.9-23.9c9-12.5,11.8-28.4,13-43.8c2.6-34.9-2.1-70-2.8-105c-0.2-10.2,0-20.7,4-30.1
				c-18.5-12.8-40.5-20.5-62.5-24.9c-4.7,6.3-11.4,9.2-19.2,9.6C343.4-28.6,337.4-31.6,332.1-37.3"/>
			<path id="Caminho_37701" class="st15" d="M259,145c0.9-10.1-6.3-21.7-3.7-31.5c6.5-24.7,18.7-48.8,16.1-74.3
				c5.6,2.8,10.6,6.5,13.4,11.9c2.4,4.5,3,9.8,3,14.9c0.1,10.2-1.8,20.3-2.2,30.5s0.9,21,6.6,29.3c6.6,9.6,18.1,14.5,29.2,17.5
				c7.5,1.9,15.1,3.5,22.8,4.6c8.8,1.4,17.8,2.6,26.6,1.4s17.7-4.8,23.5-11.7c9.2-11,8.9-26.9,10.6-41.2
				c1.8-15.8,6.5-31.1,13.9-45.1c2.2-4.2,4.8-8.4,8.8-10.9l0,0c1.4,25.6,16.2,52.4,14.4,78c-1.1,15.4-16.6,30-24.9,42.5
				c-8.1,12.1-20.8,19.9-34.1,24c-13.3,4.1-27.2,4.9-41,5.5c-22.4,1-45.8,1.4-65.8-9.5c-3.7-1.9-7-4.4-9.8-7.5
				C259.9,166,258.1,155,259,145z"/>
			<path id="Caminho_37702" class="st2" d="M421.7-20.6c-8.4,37.1-1.2,80.9,8.1,117.8c2.8,11,2.2,23-1.8,28.6
				c-4.1,5.8-11.1,9.2-17.5,12.2c-14.9,6.9-25.3,15-36.6,26.8c-4.6,4.7-8.7,10.1-10.7,16.4S361.8,195,366,200
				c4,4.8,10.6,6.9,16.9,6.8s12.4-1.8,18.5-3.2c10.3-2.4,20.7-4,31.2-4.7c9.1-0.6,18.3-0.6,27.1-3.2c12.4-3.6,23.1-12.5,29.7-23.7
				c6.5-11.4,9.2-24.5,7.7-37.5c-0.9-6.9-2.3-13.7-4.3-20.4c-7.5-27.8-17.8-52.1-27.2-79.3c-3.9-11.1-11-23.7-17.8-33.3
				S433.3-18.6,421.7-20.6"/>
			<path id="Caminho_37703" class="st5" d="M350.3,181.5c0,0,24.9-6.2,34.2-0.8c9.3,5.3,23.4,13.1,23,23v4.1c0,0-66.6,1.9-72-4.1"/>
			<path id="Caminho_37704" class="st2" d="M276-23.4C263.8-22,250.5-7.8,242,4.5c-8.4,12.3-14.2,26.2-19.9,40L190.2,122
				c-3.3,8-6.6,16.1-8.2,24.6c-1.3,7.1-1.5,14.3-0.4,21.4c0.9,5.8,2.7,11.6,6.3,16.3c5.1,6.5,13.3,9.9,21,12.8
				c16.4,6.2,33.2,12.1,50.7,13.3c6.9,0.4,13.8,0.3,20.7,0c19.1-0.7,38.3-1.4,57-4.9c1.4-0.1,2.7-0.6,3.8-1.4c1.1-1,1.9-2.2,2.4-3.5
				l5.7-12.4c1.1-2.3,2.1-4.7,1.9-7.3c-0.3-3.4-2.8-6.1-5.3-8.5c-6.6-6.1-14.2-11.1-22.5-14.9c-16.9-7.6-36.2-9.5-52.1-19
				c-2-1.1-3.8-2.5-5.3-4.1c-5.9-6.2-5.5-16.2-2.2-24.1c3.3-7.9,5.6-15.4,8.8-23.3c7.2-17.6,10.8-29.1,11.2-44.1
				C284.5,21.3,282.8-3.1,276-23.4"/>
		</g>
		<g id="Grupo_35684" transform="translate(242.358 392.992)">
			<path id="Caminho_37705" class="st0" d="M351.1,141h258.6l12.5-179.5H368.7L351.1,141z"/>
			<g id="Grupo_35683" transform="translate(178.872)">
				<path id="Caminho_37706" class="st4" d="M181,141h258.6l12.5-179.5H198.7L181,141z"/>
				<circle id="Elipse_222" class="st16" cx="316.5" cy="51.2" r="15.4"/>
				<path id="Caminho_37707" class="st17" d="M449.9-7.5l-10.3,148.3H181l3.5-35.1C320.6,88.2,414.3,21.8,449.9-7.5z"/>
			</g>
		</g>
	</g>
</g>
</svg>
