<?xml version="1.0" encoding="utf-8"?>
<!-- Generator: Adobe Illustrator 19.0.0, SVG Export Plug-In . SVG Version: 6.00 Build 0)  -->
<svg version="1.1" id="Camada_1" xmlns="http://www.w3.org/2000/svg" xmlns:xlink="http://www.w3.org/1999/xlink" x="0px" y="0px"
	 viewBox="0 0 1920 1080" style="enable-background:new 0 0 1920 1080;" xml:space="preserve">
<style type="text/css">
	.st0{fill:#F4F9FF;}
	.st1{fill:#6BB2D8;}
</style>
<path id="Caminho_37711" class="st0" d="M1419.5,904c-257.9-77.5-163.2-317.2-156.7-334.8l-45.8-26.7C748.7,1095.5,0,694,0,694v388
	h1920V712C1920,712,1685.8,984,1419.5,904z"/>
<g id="Grupo_35691" transform="translate(-784.436 -1185.982) rotate(28)">
	<g id="Grupo_35690" transform="translate(1473 560)">
		<g id="XMLID_23_">
			<path id="XMLID_26_" class="st0" d="M1198.5-87.1c64.3-225-40.3-307.2-67.3-324.2c-26.9,17-131.5,99.2-67.3,324.2
				c0,0-127.2,26.9-48.9,215.2h12.2c0,0-14.7-102.7,53.8-127.2l17.1,58.7h7.3l2.4,14.7l46.5,0l2.4-14.7l7.3,0l17.1-58.7
				c68.5,24.5,53.8,127.2,53.8,127.2h12.2C1325.7-60.2,1198.5-87.1,1198.5-87.1z M1090.3-162.9c-12.1-22.7-3.4-50.8,19.2-62.9
				c22.7-12.1,50.8-3.4,62.9,19.2c12.1,22.7,3.4,50.8-19.2,62.9C1130.5-131.7,1102.4-140.3,1090.3-162.9z"/>
		</g>
		<path id="Caminho_37710" class="st1" d="M1187.5-350.4c-20.4-35.3-45.1-53.8-56.3-60.8c-11.2,7.1-35.9,25.5-56.3,60.8
			L1187.5-350.4z"/>
	</g>
</g>
</svg>
