<svg id="Layer_1" data-name="Layer 1" xmlns="http://www.w3.org/2000/svg" viewBox="0 0 25 25"><title>Paint Color Palette</title><path id="Paint_Color_Palette" data-name="Paint Color Palette" d="M22.84,4.89A13.17,13.17,0,0,0,12.53,0a12.5,12.5,0,0,0,0,25c5,0,7.26-2,7.77-4A2.81,2.81,0,0,0,19,17.8c-2.11-1.19-2.5-2.75-2-3.76s1.91-1.45,3.56-.58a2.76,2.76,0,0,0,3.45-.78C25.3,11.25,25.6,8.45,22.84,4.89ZM6.5,16.5a2,2,0,1,1,2-2A2,2,0,0,1,6.5,16.5Zm0-9a2,2,0,1,1,2,2A2,2,0,0,1,6.5,7.5Zm5,14a2,2,0,1,1,2-2A2,2,0,0,1,11.5,21.5Zm4-13a2,2,0,1,1,2-2A2,2,0,0,1,15.5,8.5Z"/></svg>